<svg xmlns="http://www.w3.org/2000/svg" viewBox="0 0 1014.59 335.84"><defs><style>.cls-1{fill:#1e1e1d;}.cls-2{fill:#fff;}</style></defs><g id="Calque_2" data-name="Calque 2"><g id="Calque_1-2" data-name="Calque 1"><path class="cls-1" d="M369.48,158.69Q381.21,180,393,202.21l-21.78.57Q360.61,181.65,350,161.27l-9.52.64q0,20.86,0,41.74l-19.44.6V107.58q19.9-2.52,39.83-4.74c8-.89,14.72,1.29,20.26,6.64s8.32,12.37,8.33,20.93a29.33,29.33,0,0,1-20,28.28ZM360.2,145a11.94,11.94,0,0,0,8.36-4.2,13.31,13.31,0,0,0,3.33-9.08,11.21,11.21,0,0,0-3.42-8.52,10,10,0,0,0-8.3-2.77q-9.84,1-19.67,2,0,12.08,0,24.16Q350.35,145.74,360.2,145Z"/><path class="cls-1" d="M459,164.91a52.16,52.16,0,0,1-.37,6.16q-21.86.75-43.69,1.68,1.69,14.67,14.2,14.3a15.21,15.21,0,0,0,8.18-2.44q3.41-2.28,6.75-7.78,6.65,3.39,13.29,6.84a29.76,29.76,0,0,1-27.81,19.09c-10.82.22-19.07-2.92-24.75-9.33s-8.53-14.92-8.55-25.63c0-10.44,2.89-19.18,8.72-26.34s13.76-11.14,23.81-11.81c9.28-.61,16.63,2.25,22.05,8.64S459,153.59,459,164.91Zm-30.45-19.24c-7.13.4-11.54,4.91-13.25,13.43q12.94-.66,25.9-1.26Q439.14,145.08,428.57,145.67Z"/><path class="cls-1" d="M533.49,125.88l.24,73.71c0,11.2-3.15,20.23-9.5,27s-14.81,10.14-25.38,10.14a45.86,45.86,0,0,1-20.5-4.47q0-10,0-20a32,32,0,0,0,20.77,7,14.67,14.67,0,0,0,11.4-5.05q4.44-5,4.43-14.39c0-2.49,0-5,0-7.47-5.23,6-11.41,9.1-18.55,9.2s-13.17-2.65-18.13-8.22-7.43-12.39-7.45-20.53q0-22-.08-44.1,9.42-.5,18.83-1,0,20.94.07,41.88a13.58,13.58,0,0,0,3.5,9.48,10.86,10.86,0,0,0,8.65,3.72,12.76,12.76,0,0,0,9.27-4.14,13.54,13.54,0,0,0,3.85-9.76q0-21.15-.07-42.32Q524.14,126.22,533.49,125.88Z"/><path class="cls-1" d="M624.45,86.1q9.3-.15,18.6-.23l0,112.92c-5.54.07-11.09.13-16.63.21-.35-2.61-.69-5.21-1-7.82q-7.47,9.21-18.44,9.26-13.15.06-21.54-11T577,161.85q0-16.56,8.36-27.86c5.58-7.53,12.77-11.41,21.54-11.56a22.23,22.23,0,0,1,17.56,7.87Q624.47,108.2,624.45,86.1ZM610.7,181.21a12.39,12.39,0,0,0,8.32-3.29,19.64,19.64,0,0,0,5.48-8.68q0-8,0-15.94a19.32,19.32,0,0,0-5.56-8.66,12,12,0,0,0-8.26-3.21,13.16,13.16,0,0,0-10.9,5.85q-4.18,5.76-4.18,14.29t4.21,14.11A12.9,12.9,0,0,0,610.7,181.21Z"/><path class="cls-1" d="M717.65,161.17a55,55,0,0,1-.39,6.46q-21.87-.18-43.74-.2,1.68,16,14.19,16a14.2,14.2,0,0,0,8.19-2.3q3.42-2.33,6.78-8L716,180.84a30.78,30.78,0,0,1-11,14.3,28.55,28.55,0,0,1-16.9,5.15q-16.25,0-24.76-10.79t-8.52-28.39q0-17.16,8.78-28.26t23.88-11q13.93.08,22.07,10.78T717.65,161.17ZM687.2,139q-10.71,0-13.29,13.67,13,0,25.94.1Q697.78,139.07,687.2,139Z"/><path class="cls-1" d="M755.54,200.61q-12.76-.09-19.21-7.55T729.9,172.7L730,86.46q9.43.21,18.86.49l-.09,86.1q0,4.48,1.8,6.83a6,6,0,0,0,4.9,2.37,7.1,7.1,0,0,0,5.81-2.62q4.5,7.81,9,15.6Q764.69,200.68,755.54,200.61Z"/><path class="cls-1" d="M847.79,91.62c8,.52,14.76,4.13,20.29,10.72a34.76,34.76,0,0,1,8.27,23.14c0,8.86-2.78,16.1-8.29,21.83a25.79,25.79,0,0,1-20.38,8.18q-10.24-.37-20.5-.71,0,22.58-.08,45.14l-19.47-.26q.09-55.18.17-110.36Q827.81,90.32,847.79,91.62Zm-1.88,46a11.71,11.71,0,0,0,9.09-3.34q3.69-3.57,3.69-9.62a13.91,13.91,0,0,0-3.65-9.86,12.9,12.9,0,0,0-9.09-4.28q-9.35-.52-18.7-1l0,27.31Z"/><path class="cls-1" d="M910.66,129.85c8.85.58,15.93,3.32,21.24,8.11s8,11.55,8,20.35q0,21.88-.07,43.76l-15.85-.38q-.45-3.42-.89-6.84c-6.54,5.29-13.63,7.91-21.28,7.76q-9.28-.18-15.07-6.2c-3.86-4-5.78-9.38-5.77-16,0-7.13,2.79-12.68,8.34-16.57s13.26-4.74,23.14-2.59l9.15,2c0-2,0-4,0-6q0-5.7-3.66-8.7a15.35,15.35,0,0,0-9.08-3.32c-6.27-.35-11.56,2.18-15.86,7.65q-5.6-6.15-11.19-12.36a29.79,29.79,0,0,1,12.13-8.78Q900.62,129.17,910.66,129.85Zm-10.14,50a7.46,7.46,0,0,0,2.18,5.64,8.19,8.19,0,0,0,5.67,2.21c4.38.14,8.76-1.84,13.15-5.86,0-2.37,0-4.74,0-7.1l-5.16-1.33q-8.49-2.16-12.17,0A7,7,0,0,0,900.52,179.86Z"/><path class="cls-1" d="M989.39,136.18c7.55.68,13.63,3.56,18.26,8.55s6.94,11.23,6.94,18.79v40.73l-18.8-.58q0-19.54,0-39.09a11.27,11.27,0,0,0-3.34-8.32,13.09,13.09,0,0,0-8.62-3.72,12.14,12.14,0,0,0-9.33,2.94,10.92,10.92,0,0,0-3.81,8.59l0,38.88-18.81-.5.09-68q8.43.66,16.86,1.34l1,7.87A22.74,22.74,0,0,1,989.39,136.18Z"/><path class="cls-1" d="M423.62,281.23H408.9V250.29h14.36c6.32,0,10.21,3.14,10.21,8v.09a7.19,7.19,0,0,1-4.06,6.67c3.58,1.37,5.79,3.45,5.79,7.6v.09C435.2,278.4,430.6,281.23,423.62,281.23Zm3.09-21.79c0-2-1.59-3.19-4.46-3.19h-6.72v6.54h6.28c3,0,4.9-1,4.9-3.27Zm1.73,12.37c0-2.08-1.55-3.36-5-3.36h-7.87v6.81h8.09c3,0,4.82-1.06,4.82-3.36Z"/><path class="cls-1" d="M466.35,281.23v-2.57a9.11,9.11,0,0,1-7.16,3c-4.46,0-8.13-2.57-8.13-7.25v-.09c0-5.17,3.93-7.56,9.55-7.56a17,17,0,0,1,5.79,1v-.39c0-2.79-1.73-4.33-5.09-4.33a17.36,17.36,0,0,0-6.54,1.28l-1.68-5.13a20.94,20.94,0,0,1,9.2-1.9c7.33,0,10.56,3.8,10.56,10.21v13.75Zm.14-9.55a10.46,10.46,0,0,0-4.29-.89c-2.87,0-4.64,1.15-4.64,3.28v.08c0,1.82,1.5,2.88,3.67,2.88,3.13,0,5.26-1.73,5.26-4.16Z"/><path class="cls-1" d="M506.26,281.23l-6.19-9.68L497.73,274v7.21H491V249h6.72v17.19l7.87-8.61h8l-9,9.32L514,281.23Z"/><path class="cls-1" d="M550.45,271.72H534a5.49,5.49,0,0,0,5.79,4.64,7.72,7.72,0,0,0,5.74-2.43l3.85,3.41a11.85,11.85,0,0,1-9.68,4.42c-7.11,0-12.37-5-12.37-12.25v-.09c0-6.76,4.81-12.33,11.71-12.33,7.91,0,11.53,6.15,11.53,12.86V270C550.54,270.71,550.5,271.1,550.45,271.72ZM539,262.49c-2.79,0-4.6,2-5.13,5H544C543.6,264.52,541.84,262.49,539,262.49Z"/><path class="cls-1" d="M581.83,264.12c-4.46,0-7.2,2.7-7.2,8.35v8.76h-6.72V257.54h6.72v4.77c1.37-3.27,3.58-5.39,7.56-5.22v7Z"/><path class="cls-1" d="M612.19,281.8c-1.81,4.82-3.75,6.63-7.78,6.63a11.06,11.06,0,0,1-6-1.64l2.25-4.86a6.14,6.14,0,0,0,2.87.93,2.25,2.25,0,0,0,2.35-1.55l-9.28-23.77h7.11l5.39,16.13,5.17-16.13h7Z"/><path class="cls-1" d="M684.8,281.84l-3.58-3.62a13.93,13.93,0,0,1-9.06,3.45c-5.92,0-10.38-3.45-10.38-9,0-4,2.12-6.77,6-8.53a10.44,10.44,0,0,1-2.17-6.24c0-4.28,3.4-8.17,9.37-8.17,5.26,0,8.71,3.4,8.71,7.82,0,4.2-2.65,6.63-6.5,8.13l4.11,4.11c1-1.59,2-3.4,3-5.3l5,2.74a56.91,56.91,0,0,1-4.07,6.54l4.56,4.55Zm-13.3-13.52c-2,1.06-2.87,2.56-2.87,4.11,0,2.21,1.81,3.67,4.33,3.67a7.27,7.27,0,0,0,4.46-1.77Zm3.36-13.26a2.93,2.93,0,0,0-3,3.18c0,1.42.53,2.43,1.82,3.89,2.69-1,4.11-2.16,4.11-4.15A2.72,2.72,0,0,0,674.86,255.06Z"/><path class="cls-1" d="M744.73,271.94h-5.17v9.29h-6.81V250.29h12.64c7.38,0,11.85,4.37,11.85,10.69v.09C757.24,268.23,751.67,271.94,744.73,271.94Zm5.61-10.82c0-3.05-2.12-4.69-5.52-4.69h-5.26v9.46H745c3.4,0,5.39-2,5.39-4.69Z"/><path class="cls-1" d="M787.38,281.23v-2.57a9.13,9.13,0,0,1-7.16,3c-4.47,0-8.14-2.57-8.14-7.25v-.09c0-5.17,3.94-7.56,9.55-7.56a16.94,16.94,0,0,1,5.79,1v-.39c0-2.79-1.72-4.33-5.08-4.33a17.29,17.29,0,0,0-6.54,1.28l-1.68-5.13a20.86,20.86,0,0,1,9.19-1.9c7.34,0,10.56,3.8,10.56,10.21v13.75Zm.13-9.55a10.42,10.42,0,0,0-4.29-.89c-2.87,0-4.64,1.15-4.64,3.28v.08c0,1.82,1.5,2.88,3.67,2.88,3.14,0,5.26-1.73,5.26-4.16Z"/><path class="cls-1" d="M820.34,281.67a16.63,16.63,0,0,1-10.16-3.58l2.87-4.42a13.44,13.44,0,0,0,7.47,2.83c2,0,2.83-.71,2.83-1.77v-.09c0-1.46-2.3-1.94-4.91-2.74-3.31-1-7.07-2.52-7.07-7.12v-.08c0-4.82,3.89-7.52,8.66-7.52a16.41,16.41,0,0,1,8.84,2.74l-2.56,4.64a14,14,0,0,0-6.41-2.21c-1.63,0-2.47.71-2.47,1.64v.09c0,1.32,2.25,1.94,4.81,2.83,3.32,1.1,7.16,2.69,7.16,7V274C829.4,279.28,825.47,281.67,820.34,281.67Z"/><path class="cls-1" d="M854.15,281.62c-4.11,0-6.89-1.63-6.89-7.11V263.28h-2.83v-5.74h2.83v-6.06H854v6.06h5.56v5.74H854V273.4c0,1.55.66,2.3,2.16,2.3a6.87,6.87,0,0,0,3.32-.84v5.39A9.92,9.92,0,0,1,854.15,281.62Z"/><path class="cls-1" d="M890.79,264.12c-4.46,0-7.21,2.7-7.21,8.35v8.76h-6.71V257.54h6.71v4.77c1.37-3.27,3.58-5.39,7.56-5.22v7Z"/><path class="cls-1" d="M921.15,281.8c-1.81,4.82-3.76,6.63-7.78,6.63a11.06,11.06,0,0,1-6-1.64l2.25-4.86a6.1,6.1,0,0,0,2.87.93,2.23,2.23,0,0,0,2.34-1.55l-9.28-23.77h7.12l5.39,16.13,5.17-16.13h7Z"/><rect class="cls-1" x="321.1" y="250.88" width="66.45" height="10.15"/><rect class="cls-1" x="321.1" y="271.63" width="66.45" height="10.15"/><rect class="cls-1" x="947.98" y="253.02" width="66.61" height="10.15"/><rect class="cls-1" x="947.98" y="273.77" width="66.61" height="10.15"/><path class="cls-2" d="M206,335.84c-18.83,0-37.37-6.31-58.83-13.62-9.55-3.25-19.4-6.6-30.06-9.67-19.52,9.79-38,14.75-55,14.75-26.32,0-42-11.63-48.31-22.68C6.65,300.52-2.19,290.23.49,271.46c3.31-22.49,11.35-32.8,23.26-41,5.09-18.14,16-54.3,23.78-62s40.33-17.46,63-23.61l-1.64-13.72c-.66-4.21-1.3-7.88-1.88-10.71a12.83,12.83,0,0,1-1.56-.92C98.7,115,94.18,103.36,96.26,95.62a11.48,11.48,0,0,1,.76-2A61.71,61.71,0,0,1,86.25,85C74.8,74,71.31,59.06,76.94,45.07,81.25,34.36,89.93,26.54,98.8,25c7.65-16.29,30.87-25,51.46-25,25.3,0,55.25,13,58.43,49.3C221.24,61.89,226.67,75.88,224,89c-2.52,12.41-12.09,22.42-27,28.34A47.7,47.7,0,0,0,188.05,133c15.46,15.3,34.54,19.29,48.71,22.25,3.9.82,7.27,1.52,10.21,2.39a20.91,20.91,0,0,1,10.87,7.79c14.79,19.61,12.8,90.9,12.21,105.88a29.27,29.27,0,0,1,3.2,18.43c-1.12,8.08-5.72,20-21.27,30.76C237.46,330.82,222.38,335.84,206,335.84Z"/><path class="cls-1" d="M127.19,125.14c-4.46-5,.6-8.41,1.06-8.71C128,116.81,125.21,120.84,127.19,125.14Z"/><path class="cls-1" d="M137.31,128.16s.19-1,1.85-1.06c2.56-.11,6.48-.3,5.25-5C148,128.16,139.08,128.35,137.31,128.16Z"/><path class="cls-1" d="M160,134.66c-1.58-4-6.5-8.52-7.13-9.09C159.46,128.62,160.06,131.42,160,134.66Z"/><path class="cls-1" d="M141.94,140.46a11.54,11.54,0,0,0,6.25-2.46c-4.92,1.4-5.78,1.51-7.85,1.58s-4.51,2-9.5-.18a8.15,8.15,0,0,0-4.56,0c2.93-.21,5.75,1.51,8,2.14S138.17,140.73,141.94,140.46Z"/><path class="cls-1" d="M128.54,142.19c.58,1.65,1.62,4.09,6,4.27,4.15.18,5.55-.79,9.21-3.23a14,14,0,0,1-3.33,1.11C133.29,146,130.75,144.92,128.54,142.19Z"/><path class="cls-1" d="M163.67,101c-6-5.25-15.18-1.55-17,.84,0,0,2,.24,2.26-.25,1.2-1.82,3.16-1.66,4.3-1.66a4.33,4.33,0,0,0,.05,3,9.26,9.26,0,0,0,.55,1.2,10.34,10.34,0,0,0,1.82.16,16.26,16.26,0,0,0,4.08-.68c.33-.11.44-.43.57-1.12a4.73,4.73,0,0,0-.05-2.61C162.26,100.16,161.8,101.71,163.67,101Zm-7.89.51a.79.79,0,0,1,0-1.58.79.79,0,1,1,0,1.58Z"/><path class="cls-1" d="M261.78,273.68c.9-17,2.2-86.51-10.48-103.33a12.87,12.87,0,0,0-6.63-4.84c-13.55-4-43.72-5.47-65.71-30.2a55.69,55.69,0,0,1,13.2-24.89c29-10.42,32.4-35.42,8.6-57.43C198.25-8.5,110.11,1.73,104.67,33.32c-12.74-4.3-35,24.43-12.74,45.81S115,80.49,115,80.49,154.56,58.78,185.08,93c-7.15,2.34-12.21,3.4-18.47,2a54.81,54.81,0,0,0-11.37-.68c1.66-1,4.3-2.26,5.66-2.34,2.18-.08,1.79-.76,11.56,2.47,0,0,0-.4-1.49-1.87a18.53,18.53,0,0,0-4.44-3,2,2,0,0,1-.71-.57,3.08,3.08,0,0,0-2.12-1.33c-6.8-.66-16.92,4.65-20.59,7.53a23.78,23.78,0,0,0-4.55.82,1.38,1.38,0,0,0-1.06,1.19c-2.53.09-4.57,0-5.79,0-3.68-4.65-14.83-6-16.14-5.71s-2.14.74-2.47,3c-4.44.14-8.35,1-8.95,3.21-1.14,4.25,1.79,12.3,6,15.07,1.66,1.12,5.49,2.13,8,2.53,6,.93,11.37-.79,12.08-7,.44-4,.82-7.84,4.93-7.54,4.05.55,2.91,9.52,7.89,13s22.47,5.11,26.14-3.7c1.69-4.73,1.22-8,5.36-9.49,1.74-.63,4.81-1.58,7.83-2.48a22.91,22.91,0,0,1,1.58,1.79c-4,2.48-3.83,4.44-3.45,8.38.6,8.66-1.06,21.47-12.74,28.11-9.65,5.49-10.47,8.73-10.47,9.71-.54-11.67,1.36-15.59-11.92-15.32-13.49.25-24.13,0-25.84,5.28-.93,3.27,0,14.86,0,14.86-11.83,3.1-58.63,15.91-66.27,23.37S30.8,235.59,30.8,235.59c-12,7.62-19.12,15.92-22.23,37s11.21,25.84,11.21,25.84c7,16.49,41.41,34.15,96.42,5.36,55.09,15.35,89.75,39.32,131.13,10C269,298.76,267.41,280.54,261.78,273.68ZM178.28,75.3c-31.77-19.51-66.76-2.42-66.76-2.42s3.7-22.67,33.41-22.67C189.76,50.21,182.23,64.9,178.28,75.3ZM164.35,36.5c1.61.36,5.88,2.18,9.66,11.29,0,0-25.87-14.39-49.46-8.3C126.13,40,136.47,48,112.64,48c-17.25,1.2-18.15-4.76.32-11.24-.46-3.59-4.54-15.75,31.13-20.35s45,12.44,48.31,42.53C192.4,59,178.53,37.15,164.35,36.5Zm-35.58,71.25c-2.67,8.93-10,6.12-15.1,4.49a11.37,11.37,0,0,1-2.83-1.3,11.62,11.62,0,0,1-1.41-1l-.06-.06c-.13-.11-.24-.22-.32-.3-1.07-1.06-1.23-8.08-1.31-9.74,0-1.11,1.74-2.26,2.8-2.85a3.91,3.91,0,0,1,1.63-.41c-.38,4.73.9,12,1.23,9.28,0-.36,0-.68,0-1s0-.81,0-1.22a6.5,6.5,0,0,0-.09-1.06c-.21-2.29-.3-4.66-.46-6,3.32-.33,5.66-.49,7.32-.52.22,0,.38,0,.6,0a17,17,0,0,1,1.9.14,2.47,2.47,0,0,0,.44,0,8,8,0,0,1,4.65,2c-.33,0-1.58,0-1.58,0-6.72.14-8,1.66-8.81,3.51a4.5,4.5,0,0,0,2.42,1.69,9.12,9.12,0,0,1-1.39-1.55,2.84,2.84,0,0,1,3.08-1.8,4.6,4.6,0,0,0,.59,3.32,4.09,4.09,0,0,0,4.11.38,3.68,3.68,0,0,0,.85-3.81,3.76,3.76,0,0,1,2.06.44C130,102.77,129.31,105.69,128.77,107.75Zm-4.9-7a.5.5,0,0,1-.51.52.52.52,0,0,1-.52-.52.54.54,0,0,1,.52-.52A.52.52,0,0,1,123.87,100.79Zm45.63,2.64c.1,2.09-1.45,8-5.17,10-5.25,2.83-13.22,1.47-13.22,1.47-3.54-.52-8.3-2.1-11.16-9.58a11.5,11.5,0,0,1-.76-4v-2.1a1.52,1.52,0,0,1,1.22-1.47c2.83-.52,5.66-1,8.49-1.58a4.61,4.61,0,0,0-.76,2.56s6-3.26,14.61-.68a2.69,2.69,0,0,0-.65-1.93c4.08,0,7.4,3.54,7.4,6.64ZM122.16,136c1.06-2.18,12.27-.77,14-.82,7-.46,17.87-3.27,19.21,1.28s-4.14,19.64-18.67,19.5S119.82,142.14,122.16,136ZM98.41,172.88a8.88,8.88,0,0,1,5.49-5.95c7.4-2.78,19.92-6.75,19.92-6.75s-1.28,3.75,17.68,6.39,28-19.45,28-19.45,4.73.16,12.18,5.41a8.51,8.51,0,0,1,3.4,8.76c-2.12,9.42-8.21,29-23.07,41.08a7.22,7.22,0,0,1-5.65,1.5c-12.9-2-37.77-2.69-52.84-.22a5.32,5.32,0,0,1-5.85-3.48C96,195.44,94.49,186.62,98.41,172.88Zm-45,16.22c4.46-13.28,14-13.41,32-17.17,0,0-14.06,31.89-15.64,57.7,0,0-13.12-7.59-27.67-6.53C42.12,223.1,48.89,202.37,53.41,189.1Zm30,45.54-8.82-3.86c1-1.36,2.1-2.1,3.62-1.88a8.75,8.75,0,0,1,4.74,3A4.24,4.24,0,0,1,83.42,234.64Zm-48.56,4.57a.1.1,0,0,0,0-.05,4.07,4.07,0,0,1,.66-.93,4.87,4.87,0,0,1,.4-.43,2.21,2.21,0,0,1,.3-.25,1.4,1.4,0,0,1,.47-.24,1.67,1.67,0,0,1,.65-.33,5,5,0,0,1,.71-.3,20.41,20.41,0,0,1,2-.49,6.52,6.52,0,0,1,1.14-.16c.38-.06.76-.08,1.17-.11a7.54,7.54,0,0,1,.82-.06c.54,0,1.14,0,1.71,0s1.28,0,2,0c1.14.06,2.31.11,3.48.25a11.31,11.31,0,0,1,1.42.11,5.58,5.58,0,0,1,.57.08c.3,0,.57.08.87.11.82.08,1.63.19,2.45.35a1.12,1.12,0,0,1,.32,0,3.73,3.73,0,0,1,.52.11,5.79,5.79,0,0,1,.76.11c.52.05,1,.16,1.53.24,1.28.19,2.45.44,3.51.63,1.68.32,3,.62,3.91.81q-6.15-2-10.72-3.51l-1-.32-1-.33c-3.57-1.2-6.23-2.12-8-2.75-.29-.13-.59-.21-.84-.3-.52-.19-.9-.32-1.14-.43l-.36-.11c10.94-2.2,25.41-5.2,65.3,21.85-7.18,1.87-44.48,4.51-61.81-4.66-4.6-2.64-4.6,2.4,6.17,5.25-10.39.22-18.61-3.78-18.25-13A2.94,2.94,0,0,1,34.86,239.21ZM94.41,300.8c-14.31,8.52-63.15,10.7-64.59-9.36-1-4-9,.52-10.55-10.69s2-25.71,37-22.69,54,10,107.08-15.31c10.86-6.18,27.35,1.22,27.35,1.22-.9,5.42,0,17.49,0,17.49C184.24,269.35,176,272.67,162.4,274S108.66,292.34,94.41,300.8Zm137.85,4.08c-5.06,13.39-29.16,10.75-50.66,5.8s-54.41-13.2-54.41-13.2c14-9.41,33.33-20,53.68-18.63,11.23-.14,10-9.41,20.48-7.75S237.37,291.39,232.26,304.88Zm-22.83-58.73c46.28,29.38,50.17,37.24,39.42,52.61,0,0-13-26.6-47.12-40.61,0,0-2.42-16.08,6.13-56.4-1.06,1.22-9.28,11.48-15.46,32.1-15.37-2-1.82-58.76,8.74-71.41,0,0,7.29,1.57,31.5,5.71s21.68,31.8,24,101.88C256.61,270,244.18,252.19,209.43,246.15Z"/><path class="cls-1" d="M136.25,137.78a9.28,9.28,0,0,1,3.75-.37,28.1,28.1,0,0,0-2.75-.74,10.45,10.45,0,0,0-1.7.44c-.28,0-.28-.19-1.11-.32-1.13,0-2.07,1.37-2.07,1.37s1.31-.94,1.94-.75S135.45,138.16,136.25,137.78Z"/><path class="cls-1" d="M136.51,147.85c-3-1-5,.31-3.62,2.55,0,0-.36-1,.16-.81.36.19.57.94.13,1.78,0,0,.84-.34.75-1,0,0,1.32,1.23-.35,3a3.4,3.4,0,0,0,3-3.72,1.8,1.8,0,0,1,.2,1.79C137.45,150.54,138.4,148.58,136.51,147.85Z"/></g></g></svg>